<svg xmlns="http://www.w3.org/2000/svg" width="20.037" height="20.037" viewBox="0 0 20.037 20.037">
    <path d="M12.959 16.276a3.317 3.317 0 1 0-3.316-3.316 3.317 3.317 0 0 0 3.317 3.317z" transform="translate(1.02 1.021)" style="fill:none;stroke:#000;stroke-linecap:round;stroke-linejoin:round;stroke-width:2px"/>
    <path d="m17.427 17.428-2.3-2.3" transform="translate(1.195 1.195)" style="fill:none;stroke:#000;stroke-linecap:round;stroke-linejoin:round;stroke-width:2px"/>
    <path data-name="vector 2652" d="M9.266 2.633h0a1.99 1.99 0 0 0-1.99-1.99H.643V13.91h5.969" transform="translate(.734 .734)" style="fill:none;stroke:#000;stroke-linecap:round;stroke-linejoin:round;stroke-width:2px"/>
    <path data-name="vector 2656" d="M9 2.572v5.075" transform="translate(1 .795)" style="fill:none;stroke:#000;stroke-linecap:round;stroke-linejoin:round;stroke-width:2px"/>
    <path data-name="vector 2653" d="M9 2.633h0a1.99 1.99 0 0 1 1.99-1.99h6.633v7.429" transform="translate(1 .734)" style="fill:none;stroke:#000;stroke-linecap:round;stroke-linejoin:round;stroke-width:2px"/>
</svg>
