<svg xmlns="http://www.w3.org/2000/svg" width="20" height="20" viewBox="0 0 20 20">
    <g data-name="그룹 171">
        <path data-name="패스 7138" d="M8.161 18.747a8.017 8.017 0 0 0 3.185-.635 8.138 8.138 0 0 0 4.341-4.341 8.016 8.016 0 0 0 .635-3.185.68.68 0 1 0-1.36 0 6.558 6.558 0 0 1-1.984 4.814 6.558 6.558 0 0 1-4.817 1.983A6.558 6.558 0 0 1 3.344 15.4a6.558 6.558 0 0 1-1.984-4.814 6.657 6.657 0 0 1 1.927-4.817 6.373 6.373 0 0 1 4.76-1.983h.5l-1.18 1.178a.673.673 0 1 0 .952.952l2.38-2.38a.657.657 0 0 0 0-.952L8.3.181a.646.646 0 0 0-1.114.465.629.629 0 0 0 .181.465l1.315 1.314h-.521a8.017 8.017 0 0 0-3.185.635A8.138 8.138 0 0 0 .635 7.4 8.017 8.017 0 0 0 0 10.586a8.017 8.017 0 0 0 .635 3.185 8.138 8.138 0 0 0 4.341 4.341 8.017 8.017 0 0 0 3.185.635z" transform="translate(1.802 .591)" style="fill:#222;stroke:#222;stroke-width:.8px"/>
    </g>
</svg>
