<svg xmlns="http://www.w3.org/2000/svg" width="18.887" height="18.296" viewBox="0 0 18.887 18.296">
    <g data-name="그룹 193">
        <path data-name="패스 26100" d="M16.7 7.417V5l-3.9-4-9.7.049v6.368" transform="translate(-.426 -.25)" style="stroke-linecap:round;fill:none;stroke:#222;stroke-linejoin:round;stroke-width:1.5px"/>
        <path data-name="패스 26101" d="M3.057 15.85v4.5l13.6.037V15.85" transform="translate(-.421 -2.84)" style="stroke-linecap:round;fill:none;stroke:#222;stroke-linejoin:round;stroke-width:1.5px"/>
        <g data-name="그룹 16449">
            <g data-name="패스 7226" style="fill:#222;stroke-dasharray:2 4 1 3 1 3;stroke-linecap:round">
                <path d="M1.838.892H-.054A.946.946 0 0 1-1-.054.946.946 0 0 1-.054-1h1.892a.946.946 0 0 1 .946.946.946.946 0 0 1-.946.946z" style="stroke:none" transform="translate(1 10.124)"/>
                <path d="M1.838.892H-.054a1.044 1.044 0 0 1 0-.001V-.608h.476A.75.75 0 0 1 1.082-1h.756v.392a.75.75 0 0 1 0 1.5zM2.075-.97a.748.748 0 0 0-.237-.022V-1a.91.91 0 0 1 .2.021h.003a.964.964 0 0 1 .011.003h.003a.861.861 0 0 1 .02.006z" style="fill:#222;stroke:none" transform="translate(1 10.124)"/>
            </g>
            <g data-name="패스 7225" style="fill:#222;stroke-dasharray:2 4 1 3 1 3;stroke-linecap:round">
                <path d="M1.838.892H-.054A.946.946 0 0 1-1-.054.946.946 0 0 1-.054-1h1.892a.946.946 0 0 1 .946.946.946.946 0 0 1-.946.946z" style="stroke:none" transform="translate(6.033 10.124)"/>
                <path d="M1.838.892H-.054a1.044 1.044 0 0 1 0-.001V-.608h.476A.75.75 0 0 1 1.082-1h.756v.392a.75.75 0 0 1 0 1.5zM2.075-.97a.748.748 0 0 0-.237-.022V-1a.91.91 0 0 1 .2.021h.003a.964.964 0 0 1 .011.003h.003a.861.861 0 0 1 .02.006z" style="fill:#222;stroke:none" transform="translate(6.033 10.124)"/>
            </g>
            <g data-name="패스 7224" style="fill:#222;stroke-dasharray:2 4 1 3 1 3;stroke-linecap:round">
                <path d="M1.838.892H-.054A.946.946 0 0 1-1-.054.946.946 0 0 1-.054-1h1.892a.946.946 0 0 1 .946.946.946.946 0 0 1-.946.946z" style="stroke:none" transform="translate(11.069 10.124)"/>
                <path d="M1.838.892H-.054a1.044 1.044 0 0 1 0-.001V-.608h.476A.75.75 0 0 1 1.082-1h.756v.392a.75.75 0 0 1 0 1.5zm.24-1.861zm-.001 0a.748.748 0 0 0-.239-.023V-1a.91.91 0 0 1 .239.03z" style="fill:#222;stroke:none" transform="translate(11.069 10.124)"/>
            </g>
            <g data-name="패스 7223" style="fill:#222;stroke-dasharray:2 4 1 3 1 3;stroke-linecap:round">
                <path d="M1.838.892H-.054A.946.946 0 0 1-1-.054.946.946 0 0 1-.054-1h1.892a.946.946 0 0 1 .946.946.946.946 0 0 1-.946.946z" style="stroke:none" transform="translate(16.103 10.124)"/>
                <path d="M1.838.892H-.054a1.044 1.044 0 0 1 0-.001V-.608h.476A.75.75 0 0 1 1.082-1h.756v.392a.75.75 0 0 1 0 1.5zm.24-1.861zm-.001 0a.748.748 0 0 0-.239-.023V-1a.91.91 0 0 1 .239.03z" style="fill:#222;stroke:none" transform="translate(16.103 10.124)"/>
            </g>
        </g>
    </g>
</svg>
