<svg xmlns="http://www.w3.org/2000/svg" width="48" height="48" viewBox="0 0 48 48">
    <path data-name="패스 7" d="M24 0A24 24 0 1 1 0 24 24 24 0 0 1 24 0z" style="fill:#ffe800"/>
    <g data-name="그룹 1">
        <path data-name="패스 2" d="M309.017 209s1.411.147 2.141.147c6.782 0 12.28-4.338 12.28-9.688s-5.5-9.688-12.28-9.688-12.28 4.338-12.28 9.688c0 3.317 2.112 6.244 5.333 7.99a9.1 9.1 0 0 1-2.87 4.538s-.241.423.481.265a28.55 28.55 0 0 0 7.195-3.252" transform="translate(-286.938 -176.477)" style="fill:#382529"/>
    </g>
</svg>
