<svg xmlns="http://www.w3.org/2000/svg" width="20" height="20" viewBox="0 0 20 20">
    <path data-name="패스 7092" d="M18.63 3.37 15.587.327a.571.571 0 0 0-.806 0L5.652 9.455a.571.571 0 0 0-.167.4V12.9a.571.571 0 0 0 .571.571H9.1a.571.571 0 0 0 .4-.167l9.13-9.128a.571.571 0 0 0 0-.806zm-9.768 8.961H6.626V10.1L12.9 3.819l2.236 2.236zm7.083-7.083-2.236-2.236 1.475-1.475 2.236 2.236zm2.092 4.611v7.607a1.331 1.331 0 0 1-1.331 1.334H1.491A1.331 1.331 0 0 1 .16 17.466V2.251A1.331 1.331 0 0 1 1.491.92H9.1a.571.571 0 0 1 0 1.141H1.491a.19.19 0 0 0-.19.19v15.215a.19.19 0 0 0 .19.19h15.215a.19.19 0 0 0 .19-.19V9.859a.571.571 0 0 1 1.141 0z" transform="translate(.521 .521)" style="fill:#222;stroke:#222"/>
</svg>
