<svg xmlns="http://www.w3.org/2000/svg" width="20" height="20" viewBox="0 0 20 20">
    <path data-name="패스 7156" d="M12.9 21.792a8.576 8.576 0 0 1-6.3-2.6A8.576 8.576 0 0 1 4 12.9a8.576 8.576 0 0 1 2.6-6.3A8.576 8.576 0 0 1 12.9 4a8.6 8.6 0 0 1 4.142.959 9.81 9.81 0 0 1 3.086 2.627V4.834a.834.834 0 1 1 1.668 0v5.393a.808.808 0 0 1-.834.834h-5.397a.834.834 0 1 1 0-1.668H19.4a8.515 8.515 0 0 0-2.7-2.7 7.017 7.017 0 0 0-3.8-1.025A7.167 7.167 0 0 0 5.668 12.9a7.167 7.167 0 0 0 7.232 7.224 7.363 7.363 0 0 0 3.892-1.1 6.87 6.87 0 0 0 2.7-2.961.921.921 0 0 1 .459-.459.708.708 0 0 1 .626-.014.751.751 0 0 1 .445.459.888.888 0 0 1-.028.653 8.565 8.565 0 0 1-3.267 3.711 8.861 8.861 0 0 1-4.827 1.379z" transform="translate(-2.953 -2.896)" style="fill:#222;stroke:#222;stroke-width:.5px"/>
</svg>
