<svg xmlns="http://www.w3.org/2000/svg" width="18" height="18" viewBox="0 0 18 18">
    <path data-name="사각형 107" style="opacity:.31;fill:none" d="M0 0h18v18H0z"/>
    <path data-name="패스 26154" d="m18.173 9.046-3.629 3.538.857 5a.583.583 0 0 1-.845.614l-4.488-2.359-4.487 2.355a.583.583 0 0 1-.845-.614l.857-5-3.63-3.534a.583.583 0 0 1 .323-.994L7.3 7.324l2.245-4.546a.607.607 0 0 1 1.045 0l2.243 4.546 5.016.728a.583.583 0 0 1 .323.994z" transform="translate(-1.013 -1.316)" style="stroke:#bbb;fill:none"/>
</svg>
