<svg xmlns="http://www.w3.org/2000/svg" width="20.433" height="20" viewBox="0 0 20.433 20">
    <path data-name="vector 2055" d="M.624 10.331C1.712 8.81 5.01 4.488 8.87 2.057c2.9-1.828 5.643.585 3.518 3.015-2.08 2.377-4.867 5.648-6.058 7.272-1.233 1.683.878 3.718 2.991 1.781A56.938 56.938 0 0 1 13.7 10.24c2.019-1.485 3.75-.174 2.869 1.5-.637 1.21-1.1 1.744-1.63 2.763a1.6 1.6 0 0 0 .837 2.344c1 .13 1.63-.586 2.484-1.7" transform="translate(.771 .861)" style="fill:none;stroke:#000;stroke-linecap:round;stroke-linejoin:round;stroke-width:2px"/>
</svg>
