<svg xmlns="http://www.w3.org/2000/svg" width="20" height="20.001" viewBox="0 0 20 20.001">
    <path d="M18.153 7.56a1.428 1.428 0 0 0-1.01-.418h-2.857a1.429 1.429 0 0 1-1.429-1.429V2.856a2.857 2.857 0 1 0-5.714 0v2.857a1.429 1.429 0 0 1-1.429 1.428H2.857A1.429 1.429 0 0 0 1.429 8.57v2.858a.714.714 0 0 0 .714.714h15.714a.714.714 0 0 0 .714-.714V8.57a1.429 1.429 0 0 0-.418-1.01zM1.442 18.478l.7-4.906h15.715l.7 4.906A1.334 1.334 0 0 1 17.238 20h-4.024v-2.857a1.071 1.071 0 1 0-2.143 0V20H2.762a1.334 1.334 0 0 1-1.32-1.522z" style="fill:#fa3d22;fill-rule:evenodd" transform="translate(0 .002)"/>
</svg>
