<svg xmlns="http://www.w3.org/2000/svg" width="20.92" height="20.001" viewBox="0 0 20.92 20.001">
    <path data-name="합치기 2" d="m3746.274-8339.133-4.885-2.569-4.885 2.567a1.158 1.158 0 0 1-.541.134 1.147 1.147 0 0 1-.686-.222 1.163 1.163 0 0 1-.464-1.14l.933-5.438-3.952-3.852a1.173 1.173 0 0 1-.294-1.193 1.16 1.16 0 0 1 .94-.793l5.462-.793 2.441-4.95a1.143 1.143 0 0 1 1.045-.619 1.146 1.146 0 0 1 1.045.619l2.441 4.95 5.46.793a1.16 1.16 0 0 1 .942.793 1.16 1.16 0 0 1-.294 1.191l-3.954 3.854.933 5.438a1.158 1.158 0 0 1-.461 1.14 1.147 1.147 0 0 1-.686.222 1.179 1.179 0 0 1-.54-.132z" transform="translate(-3730.929 8358.501)" style="fill:#fa3d22;stroke:#fa3d22"/>
</svg>
