<svg xmlns="http://www.w3.org/2000/svg" width="20" height="20.232" viewBox="0 0 20 20.232">
    <path data-name="사각형 107" transform="translate(0 .203)" style="opacity:.31;fill:none" d="M0 0h20v20H0z"/>
    <path data-name="패스 24" d="M1 8.1v8.923a2.124 2.124 0 0 0 2.124 2.124H16.3a2.124 2.124 0 0 0 2.124-2.124V8.1a2.123 2.123 0 0 0-.843-1.694L10.993 1.43a2.125 2.125 0 0 0-2.563 0L1.843 6.41A2.123 2.123 0 0 0 1 8.1z" transform="translate(.247 .08)" style="stroke-miterlimit:10;stroke-width:2px;fill:#bbb;stroke:#bbb"/>
    <path data-name="선 5" transform="translate(7.899 12.12)" style="stroke:#fff;stroke-linecap:round;stroke-miterlimit:10;stroke-width:2px;fill:none" d="M0 0h4.157"/>
</svg>
