<svg xmlns="http://www.w3.org/2000/svg" width="20" height="20" viewBox="0 0 20 20">
    <defs>
        <clipPath id="qsb1s7m8ta">
            <path data-name="사각형 7093" style="fill:#bbb" d="M0 0h17.595v18.519H0z"/>
        </clipPath>
    </defs>
    <g data-name="그룹 4">
        <path data-name="사각형 107" style="opacity:.31;fill:none" d="M0 0h20v20H0z"/>
    </g>
    <g data-name="그룹 6">
        <path data-name="선 6" transform="translate(8.5 10)" style="stroke:#fff;stroke-linecap:round;stroke-miterlimit:10;stroke-width:2px;fill:none" d="M0 0h3"/>
    </g>
    <g data-name="그룹 16283">
        <g data-name="그룹 16282" transform="translate(1.203 .741)" style="clip-path:url(#qsb1s7m8ta)">
            <path data-name="패스 14950" d="M11.529 4.842A4.934 4.934 0 0 1 6.51 9.684a4.932 4.932 0 0 1-5.017-4.842A4.932 4.932 0 0 1 6.51 0a4.934 4.934 0 0 1 5.02 4.842" transform="translate(2.286)" style="fill:#bbb"/>
            <path data-name="패스 14951" d="M0 12.178C0 7.882 3.939 4.4 8.8 4.4s8.8 3.484 8.8 7.78c0 0-17.666-.073-17.595 0" transform="translate(0 6.341)" style="fill:#bbb"/>
        </g>
    </g>
</svg>
