<svg xmlns="http://www.w3.org/2000/svg" width="25.996" height="25.996" viewBox="0 0 25.996 25.996">
    <g data-name="그룹 71">
        <path data-name="패스 7089" d="M8.458 11.572a.85.85 0 0 1-.76-1.309l4.522-7.186a.85.85 0 0 1 1.454-.052l4.493 7.212a.85.85 0 0 1-.694 1.335z" transform="translate(.049 -.783)" style="stroke:#000;fill:none;stroke-linecap:round;stroke-linejoin:round;stroke-width:1.5px"/>
        <path data-name="패스 7090" d="M4.214 14h6.068a1.189 1.189 0 0 1 1.218 1.214v6.068a1.189 1.189 0 0 1-1.218 1.218H4.214A1.189 1.189 0 0 1 3 21.282v-6.068A1.189 1.189 0 0 1 4.214 14" transform="translate(-.925 1.644)" style="stroke:#000;fill:none;stroke-linecap:round;stroke-linejoin:round;stroke-width:1.5px"/>
        <path data-name="패스 7091" d="M14 18.248A4.248 4.248 0 1 0 18.248 14 4.248 4.248 0 0 0 14 18.248" transform="translate(1.425 1.644)" style="stroke:#fa3d22;fill:none;stroke-linecap:round;stroke-linejoin:round;stroke-width:1.5px"/>
    </g>
</svg>
