<svg xmlns="http://www.w3.org/2000/svg" width="22" height="28" viewBox="0 0 22 28">
    <g data-name="그룹 16536">
        <g data-name="Group 222">
            <path data-name="패스 26151" d="M22.045 5.3a1.858 1.858 0 0 1 .552 1.32v18.574a2.812 2.812 0 0 1-2.825 2.8L3.421 28A2.812 2.812 0 0 1 .6 25.2V2.806A2.812 2.812 0 0 1 3.421.007L15.92 0a1.892 1.892 0 0 1 1.332.547z" style="fill:#ededed" transform="translate(-.597)"/>
            <path data-name="패스 26152" d="M36.5.2a1.884 1.884 0 0 1 .755.457l4.79 4.752a1.863 1.863 0 0 1 .476.8H37.4a.9.9 0 0 1-.9-.9z" transform="translate(-20.613 -.109)" style="fill:#d3d3d3"/>
        </g>
        <g data-name="그룹 329" transform="translate(6.414 8.883)">
            <path data-name="패스 7212" d="M10.124 4.092H5.678v-1.2A2.077 2.077 0 0 1 7.9 1a2.077 2.077 0 0 1 2.223 1.891z" transform="translate(-3.559 -1)" style="stroke:#aaa;stroke-linecap:round;stroke-linejoin:round;stroke-width:1.2px;fill:none"/>
            <rect data-name="사각형 4588" width="8.684" height="6.655" rx="1" transform="translate(0 3.092)" style="fill:#aaa;stroke:#aaa;stroke-linecap:round;stroke-linejoin:round;stroke-width:1.2px"/>
            <g data-name="그룹 16448">
                <path data-name="패스 7213" d="M11.509 17.78a.789.789 0 1 1-.789-.789.789.789 0 0 1 .789.789" transform="translate(-6.378 -11.771)" style="fill:#fff"/>
                <path data-name="패스 7214" d="M11.259 22.029a.515.515 0 0 1-.515-.515v-.843h1.03v.843a.515.515 0 0 1-.515.515" transform="translate(-6.918 -14.211)" style="fill:#fff"/>
            </g>
        </g>
    </g>
</svg>
