<svg xmlns="http://www.w3.org/2000/svg" width="20" height="20" viewBox="0 0 20 20">
    <g data-name="그룹 71">
        <path data-name="패스 7089" d="M8.251 9.512A.654.654 0 0 1 7.667 8.5l3.479-5.528a.654.654 0 0 1 1.119-.04l3.457 5.549a.654.654 0 0 1-.534 1.027z" transform="translate(-1.706 -1.212)" style="fill:none;stroke:#000;stroke-linecap:round;stroke-linejoin:round;stroke-width:1.5px"/>
        <path data-name="패스 7090" d="M3.934 14H8.6a.914.914 0 0 1 .934.934V19.6a.914.914 0 0 1-.934.934H3.934A.914.914 0 0 1 3 19.6v-4.666A.914.914 0 0 1 3.934 14" transform="translate(-1.403 -1.965)" style="fill:none;stroke:#000;stroke-linecap:round;stroke-linejoin:round;stroke-width:1.5px"/>
        <path data-name="패스 7091" d="M14 17.268A3.268 3.268 0 1 0 17.268 14 3.268 3.268 0 0 0 14 17.268" transform="translate(-2.132 -1.965)" style="fill:none;stroke:#000;stroke-linecap:round;stroke-linejoin:round;stroke-width:1.5px"/>
    </g>
</svg>
