<svg xmlns="http://www.w3.org/2000/svg" width="20" height="20" viewBox="0 0 20 20">
    <g data-name="그룹 329" transform="translate(-2.049 -2.293)">
        <path data-name="패스 7212" d="M13.4 6.371H5.678V4.285A3.608 3.608 0 0 1 9.539 1 3.608 3.608 0 0 1 13.4 4.285z" transform="translate(2.509 2.826)" style="fill:none;stroke:#222;stroke-linecap:round;stroke-linejoin:round;stroke-width:1.5px"/>
        <rect data-name="사각형 4588" width="15.086" height="11.561" rx="2" transform="translate(4.506 9.198)" style="fill:none;stroke:#222;stroke-linecap:round;stroke-linejoin:round;stroke-width:1.5px"/>
        <g data-name="그룹 16448">
            <path data-name="패스 7213" d="M12.673 18.361A1.371 1.371 0 1 1 11.3 16.99a1.371 1.371 0 0 1 1.371 1.371" transform="translate(.747 -4.097)" style="fill:#222"/>
            <path data-name="패스 7214" d="M11.639 23.03a.9.9 0 0 1-.895-.895v-1.464h1.79v1.465a.9.9 0 0 1-.895.895" transform="translate(.409 -5.623)" style="fill:#222"/>
        </g>
    </g>
</svg>
