<svg xmlns="http://www.w3.org/2000/svg" width="12" height="12" viewBox="0 0 12 12">
    <g data-name="그룹 329" transform="translate(1.414 .883)">
        <path data-name="패스 7212" d="M10.124 4.092H5.678v-1.2A2.077 2.077 0 0 1 7.9 1a2.077 2.077 0 0 1 2.223 1.891z" transform="translate(-3.559 -1)" style="stroke:#aaa;stroke-linecap:round;stroke-linejoin:round;stroke-width:1.2px;fill:none"/>
        <rect data-name="사각형 4588" width="8.684" height="6.655" rx="1" transform="translate(0 3.092)" style="fill:#aaa;stroke:#aaa;stroke-linecap:round;stroke-linejoin:round;stroke-width:1.2px"/>
        <g data-name="그룹 16448">
            <path data-name="패스 7213" d="M11.509 17.78a.789.789 0 1 1-.789-.789.789.789 0 0 1 .789.789" transform="translate(-6.378 -11.771)" style="fill:#fff"/>
            <path data-name="패스 7214" d="M11.259 22.029a.515.515 0 0 1-.515-.515v-.843h1.03v.843a.515.515 0 0 1-.515.515" transform="translate(-6.918 -14.211)" style="fill:#fff"/>
        </g>
    </g>
</svg>
