<svg xmlns="http://www.w3.org/2000/svg" width="20" height="20" viewBox="0 0 20 20">
    <g data-name="그룹 335" transform="translate(1.892 .545)">
        <path data-name="패스 7219" d="M12.237 3.959a2.338 2.338 0 0 0-.562-1.5A3.845 3.845 0 0 0 8.573 1a3.424 3.424 0 0 0-3.664 3.117v1.977" transform="translate(-.465 -.049)" style="stroke-linecap:round;stroke-linejoin:round;fill:none;stroke:#222;stroke-width:1.5px"/>
        <path data-name="패스 7220" d="M2.787 7.759h10.74a1.787 1.787 0 0 1 1.787 1.787v7.4a1.787 1.787 0 0 1-1.787 1.787H2.787A1.787 1.787 0 0 1 1 16.941v-7.4a1.787 1.787 0 0 1 1.787-1.782" transform="translate(-.049 -.768)" style="fill:none;stroke:#222;stroke-width:1.5px"/>
        <rect data-name="사각형 4590" width="14.315" height="10.97" rx="2" transform="translate(.951 6.99)" style="stroke-linecap:round;stroke-linejoin:round;fill:none;stroke:#222;stroke-width:1.5px"/>
        <path data-name="패스 26097" d="m6.335 13.028 1.881 1.881 3.016-3.016" transform="translate(-.671 -1.065)" style="stroke-linecap:round;stroke-linejoin:round;fill:none;stroke:#222;stroke-width:1.5px"/>
    </g>
</svg>
