<svg xmlns="http://www.w3.org/2000/svg" width="20" height="20" viewBox="0 0 20 20">
    <g transform="translate(-28 -140)">
        <g data-name="그룹 193">
            <g data-name="합치기 5" style="fill:none">
                <path d="M10.125 14.814a3.951 3.951 0 0 1 .1-.875l-1.268-1.456-1.2 1.379A3.935 3.935 0 1 1 4.37 10.9l1.606-1.847L2.714 5.3A3.6 3.6 0 0 1 3.069.221.9.9 0 0 1 4.338.31l4.619 5.313L13.576.31a.9.9 0 0 1 1.27-.089A3.6 3.6 0 0 1 15.2 5.3l-3.261 3.753 1.613 1.856a3.938 3.938 0 1 1-3.427 3.9z" style="stroke:none" transform="translate(29 140.624)"/>
                <path d="M14.063 17.252a2.441 2.441 0 0 0 2.438-2.438 2.44 2.44 0 0 0-2.756-2.417l-.797.103-2.996-3.447 4.118-4.737c.622-.717.672-1.74.188-2.504l-5.3 6.098-5.3-6.097a2.105 2.105 0 0 0 .188 2.503l4.117 4.737-2.976 3.423-.78-.085a2.44 2.44 0 0 0-2.708 2.423 2.441 2.441 0 0 0 2.439 2.438 2.44 2.44 0 0 0 2.365-3.029l-.188-.757 2.842-3.27 2.897 3.333-.169.742a2.44 2.44 0 0 0 2.377 2.982m0 1.5a3.938 3.938 0 0 1-3.84-4.814l-1.265-1.456-1.198 1.379A3.938 3.938 0 1 1 4.37 10.9l1.606-1.847L2.714 5.3A3.6 3.6 0 0 1 3.069.22a.9.9 0 0 1 1.269.09l4.62 5.313L13.575.31a.9.9 0 0 1 1.27-.09 3.602 3.602 0 0 1 .356 5.08l-3.263 3.753 1.613 1.856a3.938 3.938 0 1 1 .51 7.843z" style="fill:#000;stroke:none" transform="translate(29 140.624)"/>
            </g>
        </g>
        <circle data-name="타원 771" cx=".938" cy=".938" r=".938" transform="translate(32 154.5)" style="fill:#222"/>
        <circle data-name="타원 770" cx=".938" cy=".938" r=".938" transform="translate(42.125 154.5)" style="fill:#222"/>
    </g>
</svg>
