<svg xmlns="http://www.w3.org/2000/svg" width="22" height="28" viewBox="0 0 22 28">
    <g data-name="그룹 16536">
        <g data-name="Group 222">
            <path data-name="패스 26151" d="M22.045 5.3a1.858 1.858 0 0 1 .552 1.32v18.574a2.812 2.812 0 0 1-2.825 2.8L3.421 28A2.812 2.812 0 0 1 .6 25.2V2.806A2.812 2.812 0 0 1 3.421.007L15.92 0a1.892 1.892 0 0 1 1.332.547z" style="fill:#ededed" transform="translate(-.597)"/>
            <path data-name="패스 26152" d="M36.5.2a1.884 1.884 0 0 1 .755.457l4.79 4.752a1.863 1.863 0 0 1 .476.8H37.4a.9.9 0 0 1-.9-.9z" transform="translate(-20.613 -.109)" style="fill:#d3d3d3"/>
        </g>
        <path data-name="사각형 7318" d="M0 0h22v8a3 3 0 0 1-3 3H3a3 3 0 0 1-3-3V0z" transform="translate(.001 17)" style="fill:#fa3d22"/>
        <path data-name="패스 26153" d="M214.278 451.354v-5.395h2.3a1.9 1.9 0 0 1 1.358.472 1.8 1.8 0 0 1 0 2.509 1.9 1.9 0 0 1-1.358.472h-.915v1.941zm1.38-3.114h.76a.68.68 0 0 0 .48-.148.57.57 0 0 0 0-.812.68.68 0 0 0-.48-.148h-.76zm3.351 3.114v-5.395h1.911a3.337 3.337 0 0 1 1.063.162 2.854 2.854 0 0 1 .9.48 2.119 2.119 0 0 1 .635.841 3.335 3.335 0 0 1 0 2.428 2.118 2.118 0 0 1-.635.841 2.858 2.858 0 0 1-.9.48 3.341 3.341 0 0 1-1.063.162zm1.351-1.173h.4a2.209 2.209 0 0 0 .6-.074 1.792 1.792 0 0 0 .509-.243 1.094 1.094 0 0 0 .369-.472 2.1 2.1 0 0 0 0-1.469 1.093 1.093 0 0 0-.369-.472 1.792 1.792 0 0 0-.509-.244 2.214 2.214 0 0 0-.6-.074h-.4zm4.081 1.173v-5.395h3.838v1.173h-2.459V448h1.963v1.166h-1.963v2.192z" transform="translate(-210.277 -426.209)" style="fill:#fff"/>
        <path data-name="패스 26140" d="M10.332 4.332h2.245v1.816H7.5v-.3L9.754 2.02h-2.06V.2h4.861v.345z" transform="translate(4.466 7.481)" style="fill:#aaa"/>
        <path data-name="패스 26141" d="M6.4 3.1a4.655 4.655 0 0 1-.033.55H1.994a1.141 1.141 0 0 0 1.2 1.034 1.156 1.156 0 0 0 1.056-.559h2.028a3.11 3.11 0 0 1-3.084 2.2A3.093 3.093 0 0 1 0 3.157 3.078 3.078 0 0 1 3.193 0 3.062 3.062 0 0 1 6.4 3.1zM3.2 1.6a1.139 1.139 0 0 0-1.166.913H4.4a1.177 1.177 0 0 0-1.207-.907z" style="fill:#aaa" transform="translate(5.043 7.5)"/>
    </g>
</svg>
