<svg xmlns="http://www.w3.org/2000/svg" width="16" height="16" viewBox="0 0 16 16">
    <path data-name="패스 7083" d="m4.08 9.709 1.076-2.082a1.436 1.436 0 0 1 1.249-.79h7.724a1.436 1.436 0 0 1 1.393 1.795l-1.105 4.307a1.436 1.436 0 0 1-1.4 1.077H2.644a1.436 1.436 0 0 1-1.436-1.436V3.248a1.436 1.436 0 0 1 1.436-1.435h2.8a1.436 1.436 0 0 1 1.213.646l.581.861a1.436 1.436 0 0 0 1.2.646h4.257A1.436 1.436 0 0 1 14.129 5.4v1.437" transform="translate(-.388 .086)" style="fill:none;stroke:#000;stroke-linecap:round;stroke-linejoin:round;stroke-width:1.5px"/>
</svg>
