<svg xmlns="http://www.w3.org/2000/svg" width="26" height="26" viewBox="0 0 26 26">
    <g data-name="그룹 335" transform="translate(3.664 1.927)">
        <path data-name="패스 7219" d="M14.354 4.814a3.013 3.013 0 0 0-.725-1.937A4.956 4.956 0 0 0 9.632 1C7.024 1 4.909 2.8 4.909 5.018v2.548" transform="translate(-.406 -1)" style="stroke-linecap:round;stroke-linejoin:round;stroke:#222;fill:none;stroke-width:1.5px"/>
        <path data-name="패스 7220" d="M3.3 7.759h13.847a2.3 2.3 0 0 1 2.3 2.3v9.532a2.3 2.3 0 0 1-2.3 2.3H3.3a2.3 2.3 0 0 1-2.3-2.3v-9.528a2.3 2.3 0 0 1 2.3-2.3" transform="translate(-1 .027)" style="stroke:#222;fill:none;stroke-width:1.5px"/>
        <rect data-name="사각형 4590" width="18.45" height="14.139" rx="2" transform="translate(0 7.785)" style="stroke-linecap:round;stroke-linejoin:round;stroke:#222;fill:none;stroke-width:1.5px"/>
        <path data-name="패스 26097" d="m6.335 13.356 2.424 2.424 3.887-3.887" transform="translate(-.26 .838)" style="stroke:#fa3d22;stroke-linecap:round;stroke-linejoin:round;fill:none;stroke-width:1.5px"/>
    </g>
</svg>
