<svg xmlns="http://www.w3.org/2000/svg" width="24" height="24" viewBox="0 0 24 24">
    <path data-name="패스 7138" d="M13.411 25.242a10.228 10.228 0 0 0 4.063-.81 10.382 10.382 0 0 0 5.538-5.538 10.227 10.227 0 0 0 .81-4.063.868.868 0 1 0-1.735 0 8.367 8.367 0 0 1-2.531 6.145 8.367 8.367 0 0 1-6.146 2.53 8.367 8.367 0 0 1-6.146-2.53 8.367 8.367 0 0 1-2.531-6.145 8.493 8.493 0 0 1 2.46-6.146 8.13 8.13 0 0 1 6.073-2.53h.634l-1.5 1.5a.859.859 0 1 0 1.215 1.215l3.035-3.034a.839.839 0 0 0 0-1.215l-3.065-3.065a.824.824 0 0 0-1.417.593.8.8 0 0 0 .231.593l1.677 1.677h-.665a10.228 10.228 0 0 0-4.063.81 10.382 10.382 0 0 0-5.538 5.538 10.6 10.6 0 0 0 0 8.126 10.382 10.382 0 0 0 5.538 5.538 10.228 10.228 0 0 0 4.063.811z" transform="rotate(90 13.389 11.936)" style="fill:#222"/>
</svg>
