<svg xmlns="http://www.w3.org/2000/svg" width="26" height="26" viewBox="0 0 26 26">
    <g data-name="그룹 329" transform="translate(3.176 1.982)">
        <path data-name="패스 7212" d="M15.661 7.943H5.678v-2.7C5.678 2.9 7.912 1 10.669 1s4.991 1.9 4.991 4.246z" transform="translate(-.92 -1)" style="fill:none;stroke:#222;stroke-linecap:round;stroke-linejoin:round;stroke-width:1.5px"/>
        <rect data-name="사각형 4588" width="19.5" height="14.944" rx="2" transform="translate(0 6.943)" style="fill:none;stroke:#222;stroke-linecap:round;stroke-linejoin:round;stroke-width:1.5px"/>
        <g data-name="그룹 16448">
            <path data-name="패스 7213" d="M13.476 18.763A1.773 1.773 0 1 1 11.7 16.99a1.773 1.773 0 0 1 1.773 1.773" transform="translate(-1.954 -5.271)" style="fill:#fa3d22"/>
            <path data-name="패스 7214" d="M11.9 23.721a1.157 1.157 0 0 1-1.157-1.157v-1.893h2.313v1.893a1.157 1.157 0 0 1-1.156 1.157" transform="translate(-2.152 -6.166)" style="fill:#fa3d22"/>
        </g>
    </g>
</svg>
