<svg xmlns="http://www.w3.org/2000/svg" width="20" height="20" viewBox="0 0 20 20">
  <defs>
    <style>
      .cls-1 {
        fill: red;
        opacity: 0;
      }
    </style>
  </defs>
  <g id="btn_gnb_ppt" transform="translate(-2.915 -2.952)">
    <rect id="사각형_4273" data-name="사각형 4273" class="cls-1" width="20" height="20" transform="translate(2.915 2.952)"/>
    <path id="패스_7190" data-name="패스 7190" d="M19.774,13.533a.833.833,0,0,1-.833.833h-1.25v5a.833.833,0,0,1-1.667,0v-5h-1.25a.833.833,0,0,1,0-1.667h4.166a.833.833,0,0,1,.833.833ZM6.025,15.616a2.917,2.917,0,0,1-2.917,2.917H2.275v.833a.833.833,0,1,1-1.667,0V13.533a.833.833,0,0,1,.833-.833H3.108a2.917,2.917,0,0,1,2.917,2.917Zm-1.667,0a1.25,1.25,0,0,0-1.25-1.25H2.275v2.5h.833a1.25,1.25,0,0,0,1.25-1.25Zm8.75,0a2.917,2.917,0,0,1-2.917,2.917H9.358v.833a.833.833,0,0,1-1.667,0V13.533a.833.833,0,0,1,.833-.833h1.667a2.917,2.917,0,0,1,2.917,2.917Zm-1.667,0a1.25,1.25,0,0,0-1.25-1.25H9.358v2.5h.833a1.25,1.25,0,0,0,1.25-1.25ZM.608,9.366v-7.5A1.667,1.667,0,0,1,2.275.2h10a.833.833,0,0,1,.59.244L18.7,6.277a.833.833,0,0,1,.244.59v2.5a.833.833,0,0,1-1.667,0V7.7h-5a.833.833,0,0,1-.833-.833v-5H2.275v7.5a.833.833,0,1,1-1.667,0Zm12.5-3.333H16.1L13.108,3.045Z" transform="translate(2.724 2.752)"/>
  </g>
</svg>
