<svg id="btn_gnb_shapes" xmlns="http://www.w3.org/2000/svg" width="20" height="20" viewBox="0 0 20 20">
  <defs>
    <style>
      .cls-1 {
        fill: red;
        opacity: 0;
      }

      .cls-2 {
        fill: none;
        stroke: #000;
        stroke-linecap: round;
        stroke-linejoin: round;
        stroke-width: 2px;
      }
    </style>
  </defs>
  <rect id="사각형_4276" data-name="사각형 4276" class="cls-1" width="20" height="20"/>
  <g id="그룹_71" data-name="그룹 71" transform="translate(1.302 1.128)">
    <path id="패스_7089" data-name="패스 7089" class="cls-2" d="M8.275,9.753a.677.677,0,0,1-.6-1.043l3.6-5.722a.677.677,0,0,1,1.158-.042L16.007,8.69a.677.677,0,0,1-.553,1.063Z" transform="translate(-3.153 -2.64)"/>
    <path id="패스_7090" data-name="패스 7090" class="cls-2" d="M3.966,14H8.8a.947.947,0,0,1,.966.966V19.8a.947.947,0,0,1-.966.966H3.966A.947.947,0,0,1,3,19.8V14.966A.947.947,0,0,1,3.966,14" transform="translate(-3 -3.021)"/>
    <path id="패스_7091" data-name="패스 7091" class="cls-2" d="M14,17.383A3.383,3.383,0,1,0,17.383,14,3.383,3.383,0,0,0,14,17.383" transform="translate(-3.369 -3.021)"/>
  </g>
</svg>
