<svg xmlns="http://www.w3.org/2000/svg" width="20" height="20" viewBox="0 0 20 20">
  <defs>
    <style>
      .cls-1 {
        fill: red;
        opacity: 0;
      }

      .cls-2 {
        fill: none;
        stroke: #222;
        stroke-linecap: round;
        stroke-linejoin: round;
        stroke-width: 2px;
      }

      .cls-3 {
        fill: #222;
      }
    </style>
  </defs>
  <g id="btn_gnb_password" transform="translate(-2.915 -2.952)">
    <rect id="사각형_4273" data-name="사각형 4273" class="cls-1" width="20" height="20" transform="translate(2.915 2.952)"/>
    <g id="그룹_329" data-name="그룹 329" transform="translate(0.399 0.137)">
      <rect id="사각형_4588" data-name="사각형 4588" class="cls-2" width="16.018" height="12.275" rx="2" transform="translate(4.506 9.53)"/>
      <path id="패스_7212" data-name="패스 7212" class="cls-2" d="M13.878,6.7h-8.2V4.488C5.678,2.561,7.513,1,9.778,1s4.1,1.561,4.1,3.488Z" transform="translate(2.737 2.826)"/>
      <path id="패스_7213" data-name="패스 7213" class="cls-3" d="M12.842,18.446a1.456,1.456,0,1,1-1.456-1.456,1.456,1.456,0,0,1,1.456,1.456" transform="translate(1.128 -3.222)"/>
      <path id="패스_7214" data-name="패스 7214" class="cls-3" d="M11.694,23.176h0a.95.95,0,0,1-.95-.95V20.671h1.9v1.555a.95.95,0,0,1-.95.95" transform="translate(0.819 -4.614)"/>
    </g>
  </g>
</svg>
