<svg xmlns="http://www.w3.org/2000/svg" width="18.887" height="18.796" viewBox="0 0 18.887 18.796">
  <defs>
    <style>
      .cls-1 {
        fill: none;
        stroke: #222;
        stroke-linejoin: round;
        stroke-width: 2px;
      }

      .cls-1, .cls-2 {
        stroke-linecap: round;
      }

      .cls-2 {
        fill: #222;
        stroke-dasharray: 2 4 1 3 1 3;
      }

      .cls-3, .cls-4 {
        stroke: none;
      }

      .cls-4 {
        fill: #222;
      }
    </style>
  </defs>
  <g id="btn_gnb_pagenumber" transform="translate(-971.896 -92)">
    <g id="그룹_193" data-name="그룹 193" transform="translate(975 93)">
      <path id="패스_26100" data-name="패스 26100" class="cls-1" d="M16.7,7.417V5L12.8,1l-9.7.049L3.1,7.417" transform="translate(-3.53 -1)"/>
      <path id="패스_26101" data-name="패스 26101" class="cls-1" d="M3.057,15.85v4.5l13.6.037V15.85" transform="translate(-3.525 -3.59)"/>
      <g id="그룹_16449" data-name="그룹 16449" transform="translate(-931.104 -94.303)">
        <g id="패스_7226" data-name="패스 7226" class="cls-2" transform="translate(929 103.677)">
          <path class="cls-3" d="M1.838.892H-.054A.946.946,0,0,1-1-.054.946.946,0,0,1-.054-1H1.838a.946.946,0,0,1,.946.946A.946.946,0,0,1,1.838.892Z"/>
          <path class="cls-4" d="M -0.05673474445939064 0.8921791911125183 C -0.05683035030961037 0.8921789526939392 -0.05698318034410477 0.8921785950660706 -0.0570787787437439 0.8921782970428467 C -0.05696337670087814 0.8921786546707153 -0.05685015767812729 0.8921788930892944 -0.05673474445939064 0.8921791911125183 Z M -0.05979536846280098 0.8921654224395752 C -0.05992275103926659 0.8921645879745483 -0.06007067486643791 0.8921637535095215 -0.06019804254174232 0.8921629190444946 C -0.06006276980042458 0.8921638131141663 -0.05993065610527992 0.8921645879745483 -0.05979536846280098 0.8921654224395752 Z M -0.06293667107820511 0.8921412229537964 C -0.06303213536739349 0.8921403288841248 -0.06316070258617401 0.8921390771865845 -0.0632561519742012 0.8921381235122681 C -0.06314979493618011 0.8921391367912292 -0.06304304301738739 0.8921402096748352 -0.06293667107820511 0.8921412229537964 Z M -0.06609251350164413 0.8921067118644714 C -0.06612430512905121 0.8921063542366028 -0.06617283076047897 0.8921056389808655 -0.06620462238788605 0.8921052813529968 C -0.06616698205471039 0.892105758190155 -0.06613015383481979 0.8921062350273132 -0.06609251350164413 0.8921067118644714 Z M 1.838277459144592 0.8921837210655212 L -0.0539025254547596 0.8921837210655212 L -0.0539025254547596 -0.9999962449073792 L 1.838277459144592 -0.9999962449073792 C 2.360787391662598 -0.9999962449073792 2.784377574920654 -0.5764162540435791 2.784377574920654 -0.05390626192092896 C 2.784377574920654 0.4686037302017212 2.360787391662598 0.8921837210655212 1.838277459144592 0.8921837210655212 Z"/>
        </g>
        <g id="패스_7225" data-name="패스 7225" class="cls-2" transform="translate(934.033 103.677)">
          <path class="cls-3" d="M1.838.892H-.054A.946.946,0,0,1-1-.054.946.946,0,0,1-.054-1H1.838a.946.946,0,0,1,.946.946A.946.946,0,0,1,1.838.892Z"/>
          <path class="cls-4" d="M -0.05673474445939064 0.8921791911125183 C -0.05683035030961037 0.8921789526939392 -0.05698318034410477 0.8921785950660706 -0.0570787787437439 0.8921782970428467 C -0.05696337670087814 0.8921786546707153 -0.05685015767812729 0.8921788930892944 -0.05673474445939064 0.8921791911125183 Z M -0.05979536846280098 0.8921654224395752 C -0.05992275103926659 0.8921645879745483 -0.06007067486643791 0.8921637535095215 -0.06019804254174232 0.8921629190444946 C -0.06006276980042458 0.8921638131141663 -0.05993065610527992 0.8921645879745483 -0.05979536846280098 0.8921654224395752 Z M -0.06293667107820511 0.8921412229537964 C -0.06303213536739349 0.8921403288841248 -0.06316070258617401 0.8921390771865845 -0.0632561519742012 0.8921381235122681 C -0.06314979493618011 0.8921391367912292 -0.06304304301738739 0.8921402096748352 -0.06293667107820511 0.8921412229537964 Z M -0.06609251350164413 0.8921067118644714 C -0.06612430512905121 0.8921063542366028 -0.06617283076047897 0.8921056389808655 -0.06620462238788605 0.8921052813529968 C -0.06616698205471039 0.892105758190155 -0.06613015383481979 0.8921062350273132 -0.06609251350164413 0.8921067118644714 Z M 1.838277459144592 0.8921837210655212 L -0.0539025254547596 0.8921837210655212 L -0.0539025254547596 -0.9999962449073792 L 1.838277459144592 -0.9999962449073792 C 2.360787391662598 -0.9999962449073792 2.784377574920654 -0.5764162540435791 2.784377574920654 -0.05390626192092896 C 2.784377574920654 0.4686037302017212 2.360787391662598 0.8921837210655212 1.838277459144592 0.8921837210655212 Z"/>
        </g>
        <g id="패스_7224" data-name="패스 7224" class="cls-2" transform="translate(939.069 103.677)">
          <path class="cls-3" d="M1.838.892H-.054A.946.946,0,0,1-1-.054.946.946,0,0,1-.054-1H1.838a.946.946,0,0,1,.946.946A.946.946,0,0,1,1.838.892Z"/>
          <path class="cls-4" d="M -0.05673504248261452 0.8921791911125183 C -0.05683064833283424 0.8921789526939392 -0.05698347836732864 0.8921785950660706 -0.05707907676696777 0.8921782970428467 C -0.05696367472410202 0.8921786546707153 -0.05685045570135117 0.8921788930892944 -0.05673504248261452 0.8921791911125183 Z M -0.05979566648602486 0.8921654224395752 C -0.05992304906249046 0.8921645879745483 -0.06007097288966179 0.8921637535095215 -0.0601983405649662 0.8921629190444946 C -0.06006306782364845 0.8921638131141663 -0.0599309541285038 0.8921645879745483 -0.05979566648602486 0.8921654224395752 Z M -0.06293696910142899 0.8921412229537964 C -0.06303243339061737 0.8921403288841248 -0.06316100060939789 0.8921390771865845 -0.06325644999742508 0.8921381235122681 C -0.06315009295940399 0.8921391367912292 -0.06304334104061127 0.8921402096748352 -0.06293696910142899 0.8921412229537964 Z M -0.06609281152486801 0.8921067118644714 C -0.06612460315227509 0.8921063542366028 -0.06617312878370285 0.8921056389808655 -0.06620492041110992 0.8921052813529968 C -0.06616728007793427 0.892105758190155 -0.06613045185804367 0.8921062350273132 -0.06609281152486801 0.8921067118644714 Z M 1.838277220726013 0.8921837210655212 L -0.05390282347798347 0.8921837210655212 L -0.05390282347798347 -0.9999962449073792 L 1.838277220726013 -0.9999962449073792 C 2.360797166824341 -0.9999962449073792 2.784377098083496 -0.5764162540435791 2.784377098083496 -0.05390626192092896 C 2.784377098083496 0.4686037302017212 2.360797166824341 0.8921837210655212 1.838277220726013 0.8921837210655212 Z"/>
        </g>
        <g id="패스_7223" data-name="패스 7223" class="cls-2" transform="translate(944.103 103.677)">
          <path class="cls-3" d="M1.838.892H-.054A.946.946,0,0,1-1-.054.946.946,0,0,1-.054-1H1.838a.946.946,0,0,1,.946.946A.946.946,0,0,1,1.838.892Z"/>
          <path class="cls-4" d="M -0.05673504248261452 0.8921791911125183 C -0.05683064833283424 0.8921789526939392 -0.05698347836732864 0.8921785950660706 -0.05707907676696777 0.8921782970428467 C -0.05696367472410202 0.8921786546707153 -0.05685045570135117 0.8921788930892944 -0.05673504248261452 0.8921791911125183 Z M -0.05979566648602486 0.8921654224395752 C -0.05992304906249046 0.8921645879745483 -0.06007097288966179 0.8921637535095215 -0.0601983405649662 0.8921629190444946 C -0.06006306782364845 0.8921638131141663 -0.0599309541285038 0.8921645879745483 -0.05979566648602486 0.8921654224395752 Z M -0.06293696910142899 0.8921412229537964 C -0.06303243339061737 0.8921403288841248 -0.06316100060939789 0.8921390771865845 -0.06325644999742508 0.8921381235122681 C -0.06315009295940399 0.8921391367912292 -0.06304334104061127 0.8921402096748352 -0.06293696910142899 0.8921412229537964 Z M -0.06609281152486801 0.8921067118644714 C -0.06612460315227509 0.8921063542366028 -0.06617312878370285 0.8921056389808655 -0.06620492041110992 0.8921052813529968 C -0.06616728007793427 0.892105758190155 -0.06613045185804367 0.8921062350273132 -0.06609281152486801 0.8921067118644714 Z M 1.838277220726013 0.8921837210655212 L -0.05390282347798347 0.8921837210655212 L -0.05390282347798347 -0.9999962449073792 L 1.838277220726013 -0.9999962449073792 C 2.360797166824341 -0.9999962449073792 2.784377098083496 -0.5764162540435791 2.784377098083496 -0.05390626192092896 C 2.784377098083496 0.4686037302017212 2.360797166824341 0.8921837210655212 1.838277220726013 0.8921837210655212 Z"/>
        </g>
      </g>
    </g>
  </g>
</svg>
