<svg id="btn_gnb_insert_txt" xmlns="http://www.w3.org/2000/svg" xmlns:xlink="http://www.w3.org/1999/xlink" width="20" height="20" viewBox="0 0 20 20">
  <defs>
    <style>
      .cls-1 {
        fill: #222;
      }

      .cls-2 {
        fill: red;
        opacity: 0;
      }

      .cls-3 {
        clip-path: url(#clip-path);
      }
    </style>
    <clipPath id="clip-path">
      <rect id="사각형_4354" data-name="사각형 4354" class="cls-1" width="19.81" height="19.811"/>
    </clipPath>
  </defs>
  <rect id="사각형_4278" data-name="사각형 4278" class="cls-2" width="20" height="20"/>
  <g id="그룹_78" data-name="그룹 78" transform="translate(0.095 0.094)">
    <g id="그룹_77" data-name="그룹 77" class="cls-3">
      <path id="패스_7094" data-name="패스 7094" class="cls-1" d="M7.578,8.339H9.2L9.2,13a.973.973,0,0,0,.278.705.952.952,0,0,0,.678.295h.021a1,1,0,0,0,.708-.286.959.959,0,0,0,.294-.705V8.345h1.613a1.069,1.069,0,0,0,.707-.278.957.957,0,0,0,.294-.7.988.988,0,0,0-.991-1H7.591a1.008,1.008,0,0,0-.71.273.953.953,0,0,0-.294.7.99.99,0,0,0,.991,1" transform="translate(-0.283 -0.274)"/>
      <path id="패스_7095" data-name="패스 7095" class="cls-1" d="M18.851,5.3a.977.977,0,0,0,.959-.988V.956a.965.965,0,0,0-.3-.684A1,1,0,0,0,18.823,0H15.466a.976.976,0,0,0-.958.988v.731H5.3V.956A.974.974,0,0,0,4.315,0H.959A.977.977,0,0,0,0,.988V4.344a.968.968,0,0,0,.3.685A.957.957,0,0,0,.988,5.3h.731v9.2H.959A.975.975,0,0,0,0,15.494v3.357a.977.977,0,0,0,.969.959H4.345a.977.977,0,0,0,.958-.988v-.731h9.2v.76a.97.97,0,0,0,.3.685.9.9,0,0,0,.689.274h3.357a.977.977,0,0,0,.959-.988V15.464a.965.965,0,0,0-.3-.684,1,1,0,0,0-.688-.272h-.731V5.3ZM3.328,17.834H1.978V16.481h1.35ZM5,14.779a1.006,1.006,0,0,0-.689-.272H3.693V5.3h.651A.977.977,0,0,0,5.3,4.315V3.693h9.205v.651A.964.964,0,0,0,15.5,5.3h.622v9.205h-.651a.977.977,0,0,0-.959.988v.621H5.3v-.653a.972.972,0,0,0-.3-.684M3.328,3.328H1.978V1.978h1.35ZM16.482,16.482h1.353v1.353H16.482ZM17.835,3.328H16.482V1.978h1.353Z" transform="translate(0 0)"/>
    </g>
  </g>
</svg>
