<svg xmlns="http://www.w3.org/2000/svg" width="16.003" height="16" viewBox="0 0 16.003 16">
    <path data-name="사각형 107" style="fill:none;opacity:.31" d="M0 0h16v16H0z"/>
    <path data-name="패스 26154" d="m16.432 8.349-3.244 3.161.766 4.466a.521.521 0 0 1-.756.549l-4.01-2.108-4.01 2.108a.521.521 0 0 1-.756-.549l.766-4.466-3.244-3.161a.521.521 0 0 1 .289-.888l4.483-.651 2-4.063a.542.542 0 0 1 .934 0l2 4.063 4.483.651a.521.521 0 0 1 .289.888z" transform="translate(-1.095 -1.44)" style="fill:#fa3d22;stroke:#fa3d22"/>
</svg>
