<svg xmlns="http://www.w3.org/2000/svg" width="16.878" height="20.183" viewBox="0 0 16.878 20.183">
  <defs>
    <style>
      .cls-1 {
        fill: none;
        stroke: #000;
        stroke-linecap: round;
        stroke-linejoin: round;
        stroke-width: 2px;
      }

      .cls-2 {
        fill-rule: evenodd;
      }
    </style>
  </defs>
  <g id="btn_gnb_setting" transform="translate(-910.273 -138.968)">
    <path id="패스_7222" data-name="패스 7222" class="cls-1" d="M15.878,5.129V17.638a1.545,1.545,0,0,1-1.545,1.545H2.545A1.546,1.546,0,0,1,1,17.638V2.545A1.545,1.545,0,0,1,2.545,1h9.2Z" transform="translate(910.273 138.968)"/>
    <path id="패스_7223" data-name="패스 7223" class="cls-1" d="M18.966,5.13v.831H14V1h.831Z" transform="translate(907.186 138.968)"/>
    <path id="Subtract" class="cls-2" d="M6.058,1.691a2.162,2.162,0,0,1,1-.191,2.165,2.165,0,0,1,1,.191.542.542,0,0,1,.235.251c.058.121.185.394.3.689a3.694,3.694,0,0,1,.612.354c.312-.052.612-.078.746-.089a.543.543,0,0,1,.335.078,2.158,2.158,0,0,1,.668.773,2.162,2.162,0,0,1,.336.965.542.542,0,0,1-.1.329q-.212.31-.45.6a3.745,3.745,0,0,1,0,.706q.237.291.45.6a.541.541,0,0,1,.1.329,2.167,2.167,0,0,1-.336.965,2.167,2.167,0,0,1-.668.773.542.542,0,0,1-.335.078q-.375-.029-.746-.089a3.693,3.693,0,0,1-.612.354q-.133.351-.3.689a.542.542,0,0,1-.235.251,2.168,2.168,0,0,1-1,.191,2.165,2.165,0,0,1-1-.191.542.542,0,0,1-.235-.251c-.058-.121-.185-.394-.3-.689a3.693,3.693,0,0,1-.612-.354C4.6,9.06,4.3,9.086,4.17,9.1a.542.542,0,0,1-.335-.078,2.158,2.158,0,0,1-.668-.773,2.164,2.164,0,0,1-.336-.965.544.544,0,0,1,.1-.329q.212-.31.45-.6a3.743,3.743,0,0,1,0-.706q-.237-.291-.45-.6a.544.544,0,0,1-.1-.329,2.168,2.168,0,0,1,.336-.965,2.165,2.165,0,0,1,.668-.773A.542.542,0,0,1,4.17,2.9c.134.01.434.037.745.089a3.693,3.693,0,0,1,.612-.354q.133-.351.3-.689a.542.542,0,0,1,.235-.251ZM8.66,6a1.6,1.6,0,1,1-1.6-1.6A1.6,1.6,0,0,1,8.66,6Z" transform="translate(911.65 144.872)"/>
  </g>
</svg>
