<svg xmlns="http://www.w3.org/2000/svg" width="20" height="20" viewBox="0 0 20 20">
  <defs>
    <style>
      .cls-1 {
        fill: red;
        opacity: 0;
      }
    </style>
  </defs>
  <g id="btn_gnb_doc" transform="translate(-884 -92)">
    <rect id="사각형_4274" data-name="사각형 4274" class="cls-1" width="20" height="20" transform="translate(884 92)"/>
    <path id="패스_7189" data-name="패스 7189" d="M2.649,12.644H1.016a.816.816,0,0,0-.816.816v5.714a.816.816,0,0,0,.816.816H2.649a3.673,3.673,0,1,0,0-7.347Zm0,5.714H1.833V14.277h.816a2.041,2.041,0,1,1,0,4.081Zm17.3-.5a.816.816,0,0,1,.026,1.154,3.067,3.067,0,0,1-2.222.98,3.491,3.491,0,0,1-3.265-3.673,3.491,3.491,0,0,1,3.265-3.673,3.067,3.067,0,0,1,2.222.98.816.816,0,0,1-1.18,1.129,1.453,1.453,0,0,0-1.043-.475,1.875,1.875,0,0,0-1.633,2.041,1.875,1.875,0,0,0,1.633,2.041,1.453,1.453,0,0,0,1.043-.475.816.816,0,0,1,1.154-.026ZM10.4,12.644a3.491,3.491,0,0,0-3.265,3.673A3.491,3.491,0,0,0,10.4,19.991a3.491,3.491,0,0,0,3.265-3.673A3.491,3.491,0,0,0,10.4,12.644Zm0,5.714a1.875,1.875,0,0,1-1.633-2.041A1.875,1.875,0,0,1,10.4,14.277a1.875,1.875,0,0,1,1.633,2.041A1.875,1.875,0,0,1,10.4,18.359ZM2.241,10.2a.816.816,0,0,0,.816-.816V2.033h8.979v4.9a.816.816,0,0,0,.816.816h4.9V9.379a.816.816,0,0,0,1.633,0V6.93a.816.816,0,0,0-.239-.578L13.43.639A.816.816,0,0,0,12.853.4h-9.8A1.633,1.633,0,0,0,1.424,2.033V9.379A.816.816,0,0,0,2.241,10.2ZM13.669,3.187,16.6,6.114H13.669Z" transform="translate(883.801 91.805)"/>
  </g>
</svg>
