<svg xmlns="http://www.w3.org/2000/svg" width="20" height="20.109" viewBox="0 0 20 20.109">
  <defs>
    <style>
      .cls-1 {
        opacity: 0;
      }

      .cls-2 {
        fill: red;
        opacity: 0.42;
      }

      .cls-3 {
        fill: none;
        stroke: #000;
        stroke-linecap: round;
        stroke-linejoin: round;
        stroke-width: 2px;
      }
    </style>
  </defs>
  <g id="btn_gnb_sign" transform="translate(-1102 -94.891)">
    <g id="btn_gnb_edit" class="cls-1" transform="translate(86 3)">
      <rect id="사각형_4277" data-name="사각형 4277" class="cls-2" width="20" height="20" transform="translate(1016 92)"/>
    </g>
    <path id="패스_7170" data-name="패스 7170" class="cls-3" d="M13.67,3.779l2.1-2.1a.917.917,0,0,1,1.3,0l1.454,1.454a.917.917,0,0,1,0,1.3l-2.1,2.1M13.67,3.779,8.437,9.012a.917.917,0,0,0-.269.648v1.454a.917.917,0,0,0,.917.917H10.54a.917.917,0,0,0,.648-.269L16.421,6.53M13.67,3.779,16.421,6.53M4.5,12.032H3.584A1.834,1.834,0,0,0,1.75,13.865h0A1.834,1.834,0,0,0,3.584,15.7H16.421a1.834,1.834,0,0,1,1.834,1.834h0a1.834,1.834,0,0,1-1.834,1.834H12.753" transform="translate(1101.729 94.598)"/>
  </g>
</svg>
