<svg xmlns="http://www.w3.org/2000/svg" width="20" height="20" viewBox="0 0 20 20">
  <defs>
    <style>
      .cls-1 {
        fill: red;
        opacity: 0;
      }

      .cls-2 {
        fill: none;
      }
    </style>
  </defs>
  <g id="btn_gnb_jpg" transform="translate(-840 -92)">
    <rect id="사각형_4273" data-name="사각형 4273" class="cls-1" width="20" height="20" transform="translate(840 92)"/>
    <g id="그룹_64" data-name="그룹 64" transform="translate(840.016 92)">
      <rect id="사각형_4347" data-name="사각형 4347" class="cls-2" width="19.984" height="20" transform="translate(0 0)"/>
      <path id="패스_7188" data-name="패스 7188" d="M9.986,12.7H8.319a.833.833,0,0,0-.833.833v5.832a.833.833,0,1,0,1.666,0V18.53h.833a2.916,2.916,0,0,0,0-5.832Zm0,4.166H9.152v-2.5h.833a1.25,1.25,0,0,1,0,2.5Zm10,0V18.62a.833.833,0,0,1-.231.576,3.131,3.131,0,0,1-2.268,1,3.563,3.563,0,0,1-3.333-3.749A3.563,3.563,0,0,1,17.484,12.7a3.06,3.06,0,0,1,1.716.533.835.835,0,1,1-.937,1.381,1.376,1.376,0,0,0-.779-.248,1.914,1.914,0,0,0-1.666,2.083,1.914,1.914,0,0,0,1.666,2.083,1.42,1.42,0,0,0,.833-.282V17.7a.833.833,0,1,1,0-1.666h.833a.833.833,0,0,1,.833.833ZM5.82,13.531v3.958a2.708,2.708,0,0,1-5.416,0,.833.833,0,1,1,1.666,0,1.041,1.041,0,0,0,2.083,0V13.531a.833.833,0,0,1,1.666,0ZM19.74,6.276,13.908.444A.833.833,0,0,0,13.318.2h-10A1.666,1.666,0,0,0,1.654,1.866v7.5a.833.833,0,0,0,1.666,0v-7.5h9.165v5a.833.833,0,0,0,.833.833h5V9.365a.833.833,0,0,0,1.666,0v-2.5a.833.833,0,0,0-.244-.589Zm-5.589-.244V3.044l2.988,2.988Z" transform="translate(-0.202 -0.201)"/>
    </g>
  </g>
</svg>
