<svg id="btn_gnb_edit" xmlns="http://www.w3.org/2000/svg" width="20" height="20" viewBox="0 0 20 20">
  <defs>
    <style>
      .cls-1 {
        fill: red;
        opacity: 0;
      }

      .cls-2 {
        fill: #222;
        stroke: #222;
      }
    </style>
  </defs>
  <rect id="사각형_4277" data-name="사각형 4277" class="cls-1" width="20" height="20"/>
  <path id="패스_7092" data-name="패스 7092" class="cls-2" d="M18.63,3.37,15.587.327a.571.571,0,0,0-.806,0L5.652,9.455a.571.571,0,0,0-.167.4V12.9a.571.571,0,0,0,.571.571H9.1a.571.571,0,0,0,.4-.167L18.63,4.176a.571.571,0,0,0,0-.806ZM8.862,12.331H6.626V10.1L12.9,3.819l2.236,2.236Zm7.083-7.083L13.709,3.012l1.475-1.475L17.42,3.773Zm2.092,4.611v7.607A1.331,1.331,0,0,1,16.706,18.8H1.491A1.331,1.331,0,0,1,.16,17.466V2.251A1.331,1.331,0,0,1,1.491.92H9.1a.571.571,0,0,1,0,1.141H1.491a.19.19,0,0,0-.19.19V17.466a.19.19,0,0,0,.19.19H16.706a.19.19,0,0,0,.19-.19V9.859a.571.571,0,0,1,1.141,0Z" transform="translate(0.521 0.521)"/>
</svg>
