<svg xmlns="http://www.w3.org/2000/svg" width="20" height="20" viewBox="0 0 20 20">
  <defs>
    <style>
      .cls-1 {
        fill: #e8e8e8;
        opacity: 0;
      }
    </style>
  </defs>
  <g id="btn_gnb_xls" transform="translate(-840 -92)">
    <rect id="사각형_4552" data-name="사각형 4552" class="cls-1" width="20" height="20" transform="translate(840 92)"/>
    <path id="패스_7187" data-name="패스 7187" d="M13.11,19.367a.833.833,0,0,1-.833.833H9.36a.833.833,0,0,1-.833-.833V13.533a.833.833,0,0,1,1.667,0v5h2.083a.833.833,0,0,1,.833.833Zm-6.6-6.511a.833.833,0,0,0-1.163.194L3.944,15.017,2.539,13.049a.833.833,0,1,0-1.354.969L2.92,16.45,1.182,18.882a.833.833,0,0,0,1.354.969l1.407-1.968,1.405,1.968A.833.833,0,0,0,6.7,18.882L4.968,16.45l1.738-2.432a.833.833,0,0,0-.194-1.163Zm10.306,2.69a4.792,4.792,0,0,1-1.089-.4c-.13-.085-.128-.1-.117-.2a.473.473,0,0,1,.208-.382,3.277,3.277,0,0,1,2.065-.058.834.834,0,1,0,.424-1.613,4.8,4.8,0,0,0-3.42.287,2.144,2.144,0,0,0-.932,1.557c-.208,1.654,1.422,2.126,2.4,2.407,1.256.364,1.367.513,1.331.791a.511.511,0,0,1-.224.409,3.2,3.2,0,0,1-2.035.036.835.835,0,0,0-.447,1.609,6.315,6.315,0,0,0,1.582.208,3.293,3.293,0,0,0,1.822-.465,2.168,2.168,0,0,0,.956-1.586c.23-1.8-1.491-2.306-2.521-2.6ZM1.027,9.367v-7.5A1.667,1.667,0,0,1,2.694.2h10a.833.833,0,0,1,.59.244l5.833,5.833a.833.833,0,0,1,.244.59v2.5a.833.833,0,0,1-1.667,0V7.7h-5a.833.833,0,0,1-.833-.833v-5H2.694v7.5a.833.833,0,0,1-1.667,0Zm12.5-3.333h2.988L13.527,3.045Z" transform="translate(839.816 91.8)"/>
  </g>
</svg>
