<svg xmlns="http://www.w3.org/2000/svg" width="20" height="20" viewBox="0 0 20 20">
    <path data-name="사각형 107" style="fill:none;opacity:.31" d="M0 0h20v20H0z"/>
    <path data-name="패스 26154" d="m19.994 9.776-4.033 3.931.952 5.552a.647.647 0 0 1-.939.682l-4.986-2.621L6 19.94a.647.647 0 0 1-.939-.682l.952-5.552-4.031-3.93a.648.648 0 0 1 .359-1.1l5.573-.809 2.492-5.051a.674.674 0 0 1 1.161 0l2.492 5.051 5.573.809a.648.648 0 0 1 .359 1.1z" transform="translate(-.927 -1.187)" style="fill:#bbb;stroke:#bbb"/>
</svg>
