<svg xmlns="http://www.w3.org/2000/svg" width="20" height="20" viewBox="0 0 20 20">
    <path data-name="사각형 107" style="fill:none;opacity:.31" d="M0 0h20v20H0z"/>
    <path data-name="패스 6817" d="M10.539 1.333H4.846A2.846 2.846 0 0 0 2 4.18v13.283a2.846 2.846 0 0 0 2.846 2.846h11.386a2.846 2.846 0 0 0 2.846-2.846V9.872h-5.693a2.846 2.846 0 0 1-2.846-2.846zm8.539 6.641v-.162a2.846 2.846 0 0 0-.834-2.012l-3.632-3.634a2.846 2.846 0 0 0-2.012-.833h-.163v5.693a.949.949 0 0 0 .949.949h5.693z" transform="translate(-.539 -.822)" style="fill:#bbb;fill-rule:evenodd"/>
</svg>
