<svg xmlns="http://www.w3.org/2000/svg" width="18" height="18" viewBox="0 0 18 18">
    <g data-name="그룹 38">
        <path data-name="패스 7064" d="M3.7 13.533H1.071A.583.583 0 0 1 .5 12.94V4.676a.583.583 0 0 1 .571-.594H16.6a.582.582 0 0 1 .571.594v8.264a.582.582 0 0 1-.571.593h-2.711" transform="translate(.135 .802)" style="stroke-linejoin:round;fill:none;stroke:#000"/>
        <path data-name="사각형 4337" transform="translate(3.837 11.305)" style="stroke-miterlimit:10;fill:none;stroke:#000" d="M0 0h10.262v6.061H0z"/>
        <path data-name="패스 7065" d="M10.262 4.111V0H0v4.111" transform="translate(3.837 .707)" style="fill:none;stroke:#000"/>
        <path data-name="선 429" transform="translate(13.099 7.5)" style="stroke-miterlimit:10;fill:none;stroke:#000" d="M0 0h2"/>
        <path data-name="선 430" transform="translate(6.201 14.335)" style="stroke-miterlimit:10;fill:none;stroke:#000" d="M0 0h5.542"/>
    </g>
</svg>
