<svg xmlns="http://www.w3.org/2000/svg" width="14.001" height="14" viewBox="0 0 14.001 14">
  <defs>
    <style>
      .cls-1 {
        fill: #a5a5a5;
        opacity: 0;
      }

      .cls-2 {
        fill: none;
      }

      .cls-3, .cls-4 {
        stroke: none;
      }

      .cls-4 {
        fill: #222;
      }
    </style>
  </defs>
  <g id="ico_cloud" transform="translate(-976 -325)">
    <rect id="사각형_4455" data-name="사각형 4455" class="cls-1" width="14" height="14" transform="translate(976 325)"/>
    <g id="합치기_1" data-name="합치기 1" class="cls-2" transform="translate(4986 6988)">
      <path class="cls-3" d="M-4003-6651.058a4.209,4.209,0,0,1-2.8,1.058,4.177,4.177,0,0,1-4.2-4.154,4.159,4.159,0,0,1,2.806-3.919A4.181,4.181,0,0,1-4003-6662a4.181,4.181,0,0,1,4.193,3.928,4.158,4.158,0,0,1,2.807,3.919,4.177,4.177,0,0,1-4.2,4.154A4.208,4.208,0,0,1-4003-6651.058Z"/>
      <path class="cls-4" d="M -4000.200439453125 -6651.509765625 C -3998.716552734375 -6651.509765625 -3997.509521484375 -6652.6962890625 -3997.509521484375 -6654.154296875 C -3997.509521484375 -6655.2724609375 -3998.22998046875 -6656.2744140625 -3999.302490234375 -6656.64697265625 L -4000.25927734375 -6656.9794921875 L -4000.314453125 -6657.9912109375 C -4000.390869140625 -6659.39306640625 -4001.5703125 -6660.4912109375 -4002.999755859375 -6660.4912109375 C -4004.429931640625 -6660.4912109375 -4005.610107421875 -6659.39306640625 -4005.686279296875 -6657.9912109375 L -4005.741455078125 -6656.97998046875 L -4006.697998046875 -6656.64697265625 C -4007.77001953125 -6656.2744140625 -4008.490234375 -6655.2724609375 -4008.490234375 -6654.154296875 C -4008.490234375 -6652.6962890625 -4007.28369140625 -6651.509765625 -4005.80078125 -6651.509765625 C -4005.1337890625 -6651.509765625 -4004.49462890625 -6651.75048828125 -4004.001220703125 -6652.18798828125 L -4003.000244140625 -6653.07470703125 L -4001.998779296875 -6652.18798828125 C -4001.505126953125 -6651.7509765625 -4000.866455078125 -6651.509765625 -4000.200439453125 -6651.509765625 M -4000.200439453125 -6650 C -4001.275634765625 -6650 -4002.2568359375 -6650.3994140625 -4003 -6651.0576171875 C -4003.742919921875 -6650.3994140625 -4004.724609375 -6650 -4005.80078125 -6650 C -4008.11962890625 -6650 -4010.000244140625 -6651.859375 -4010.000244140625 -6654.154296875 C -4010.000244140625 -6655.96484375 -4008.828369140625 -6657.5048828125 -4007.194091796875 -6658.0732421875 C -4007.074951171875 -6660.26171875 -4005.2431640625 -6662.0009765625 -4002.999755859375 -6662.0009765625 C -4000.7578125 -6662.0009765625 -3998.926025390625 -6660.26171875 -3998.806640625 -6658.0732421875 C -3997.17138671875 -6657.5048828125 -3995.99951171875 -6655.96484375 -3995.99951171875 -6654.154296875 C -3995.99951171875 -6651.859375 -3997.879638671875 -6650 -4000.200439453125 -6650 Z"/>
    </g>
  </g>
</svg>
