<svg xmlns="http://www.w3.org/2000/svg" width="18" height="18" viewBox="0 0 18 18">
  <defs>
    <style>
      .cls-1 {
        fill: #fa3d22;
      }

      .cls-2 {
        fill: red;
        opacity: 0;
      }

      .cls-3 {
        fill: #fff;
      }
    </style>
  </defs>
  <g id="ico_btn_ai" transform="translate(-312 -369)">
    <rect id="사각형_7378" data-name="사각형 7378" class="cls-1" width="18" height="18" transform="translate(312 369)"/>
    <g id="ico_btn_ai-2" data-name="ico_btn_ai" transform="translate(-1575.553 222.447)">
      <rect id="사각형_4306" data-name="사각형 4306" class="cls-2" width="18" height="18" transform="translate(1887.553 146.553)"/>
      <g id="그룹_16505" data-name="그룹 16505" transform="translate(1888.684 147.506)">
        <g id="그룹_16506" data-name="그룹 16506" transform="translate(0)">
          <g id="그룹_16505-2" data-name="그룹 16505" transform="translate(0)">
            <path id="패스_26128" data-name="패스 26128" class="cls-3" d="M14.829,4.276A5,5,0,0,1,10.962.409a.515.515,0,0,0-1.008,0A5,5,0,0,1,6.088,4.276a.515.515,0,0,0,0,1.008A5,5,0,0,1,9.955,9.15a.515.515,0,0,0,1.008,0,5,5,0,0,1,3.867-3.866.515.515,0,0,0,0-1.008Z" transform="translate(-5.679)"/>
          </g>
        </g>
        <g id="그룹_16508" data-name="그룹 16508" transform="translate(3.239 10.549)">
          <g id="그룹_16507" data-name="그룹 16507">
            <path id="패스_26129" data-name="패스 26129" class="cls-3" d="M114.252,339.407a2.355,2.355,0,0,1-1.822-1.822.515.515,0,0,0-1.008,0,2.356,2.356,0,0,1-1.822,1.822.515.515,0,0,0,0,1.008,2.355,2.355,0,0,1,1.822,1.822.515.515,0,0,0,1.008,0,2.355,2.355,0,0,1,1.822-1.822.515.515,0,0,0,0-1.008Z" transform="translate(-109.192 -337.176)"/>
          </g>
        </g>
        <g id="그룹_16510" data-name="그룹 16510" transform="translate(8.913 5.142)">
          <g id="그룹_16509" data-name="그룹 16509">
            <path id="패스_26130" data-name="패스 26130" class="cls-3" d="M296.889,167.223a3.184,3.184,0,0,1-2.462-2.462.515.515,0,0,0-1.008,0,3.183,3.183,0,0,1-2.462,2.462.515.515,0,0,0,0,1.008,3.184,3.184,0,0,1,2.462,2.462.515.515,0,0,0,1.008,0,3.184,3.184,0,0,1,2.462-2.462.515.515,0,0,0,0-1.008Z" transform="translate(-290.547 -164.351)"/>
          </g>
        </g>
      </g>
    </g>
  </g>
</svg>
