<svg xmlns="http://www.w3.org/2000/svg" width="18" height="18" viewBox="0 0 18 18">
    <path data-name="패스 7069" d="M2.368 9.994a.95.95 0 0 1-.7-.293.964.964 0 0 1-.29-.7.95.95 0 0 1 .293-.7.964.964 0 0 1 .7-.29.95.95 0 0 1 .7.293.964.964 0 0 1 .29.7.95.95 0 0 1-.293.7.964.964 0 0 1-.7.29zm6.629 0a.95.95 0 0 1-.7-.293.964.964 0 0 1-.29-.7.95.95 0 0 1 .293-.7.964.964 0 0 1 .7-.29.95.95 0 0 1 .7.293.964.964 0 0 1 .29.7.95.95 0 0 1-.293.7.964.964 0 0 1-.7.29zm6.629 0a.95.95 0 0 1-.7-.293.964.964 0 0 1-.29-.7.95.95 0 0 1 .293-.7.964.964 0 0 1 .7-.29.95.95 0 0 1 .7.293.964.964 0 0 1 .29.7.95.95 0 0 1-.293.7.964.964 0 0 1-.7.29z"/>
</svg>
