<svg xmlns="http://www.w3.org/2000/svg" width="36" height="36" viewBox="0 0 36 36">
  <defs>
    <style>
      .cls-1 {
        fill: red;
        opacity: 0;
      }

      .cls-2 {
        fill: #fa3d22;
      }
    </style>
  </defs>
  <g id="img_alert" transform="translate(-5360 -819)">
    <rect id="사각형_4422" data-name="사각형 4422" class="cls-1" width="36" height="36" transform="translate(5360 819)"/>
    <path id="패스_7134" data-name="패스 7134" class="cls-2" d="M19,1.67a4.769,4.769,0,0,1,3.911,2.041l.172.262L36.362,26.143a4.769,4.769,0,0,1-3.775,7.14l-.319.013H5.716A4.769,4.769,0,0,1,1.49,26.423l.162-.3L14.924,3.966A4.769,4.769,0,0,1,19,1.67Zm.016,21.814-.208.011a1.636,1.636,0,0,0,0,3.25l.191.011.208-.011a1.636,1.636,0,0,0,0-3.25ZM19,12.029a1.636,1.636,0,0,0-1.625,1.445l-.011.192v6.546l.011.191a1.636,1.636,0,0,0,3.25,0l.011-.191V13.665l-.011-.191A1.636,1.636,0,0,0,19,12.029Z" transform="translate(5358.999 819.517)"/>
  </g>
</svg>
